<?xml version="1.0" encoding="utf-8"?>
<!-- Generator: Adobe Illustrator 16.0.0, SVG Export Plug-In . SVG Version: 6.00 Build 0)  -->
<!DOCTYPE svg PUBLIC "-//W3C//DTD SVG 1.1//EN" "http://www.w3.org/Graphics/SVG/1.1/DTD/svg11.dtd">
<svg version="1.1"
	 id="svg279" xmlns:inkscape="http://www.inkscape.org/namespaces/inkscape" xmlns:sodipodi="http://sodipodi.sourceforge.net/DTD/sodipodi-0.dtd" xmlns:svg="http://www.w3.org/2000/svg" sodipodi:docname="logosmartcash.svg" inkscape:version="1.2.1 (9c6d41e410, 2022-07-14)"
	 xmlns="http://www.w3.org/2000/svg" xmlns:xlink="http://www.w3.org/1999/xlink" x="0px" y="0px" width="90.666px"
	 height="93.334px" viewBox="0 0 90.666 93.334" enable-background="new 0 0 90.666 93.334" xml:space="preserve">
<g>
	<path fill-rule="evenodd" clip-rule="evenodd" fill="#E8242D" d="M51.45,8.693c3.752,0.066,6.594,0.801,8.984,2.822
		c2.356,1.993,3.288,4.641,3.364,7.642c0.073,2.891-0.753,5.561-2.041,8.116c-2.144,4.252-5.345,7.579-9.094,10.426
		c-2.463,1.871-4.992,3.642-7.812,4.95c-1.377,0.639-2.821,1.021-4.346,1.16c-3.044,0.278-4.793-2.664-4.307-4.833
		c0.575-2.567,1.65-4.905,3.705-6.662c1.266-1.083,2.73-1.569,4.4-1.236c0.328,0.065,0.656,0.2,0.945,0.37
		c1.036,0.608,1.303,1.655,0.562,2.606c-0.781,1.002-1.688,1.905-2.532,2.859c-0.96,1.088-1.93,2.169-2.852,3.289
		c-0.251,0.305-0.393,0.728-0.5,1.12c-0.208,0.761,0.198,1.332,0.985,1.276c0.648-0.045,1.309-0.225,1.918-0.463
		c2.141-0.84,4.032-2.116,5.853-3.501c2.667-2.03,5.202-4.199,7.197-6.926c1.474-2.013,2.554-4.206,2.922-6.696
		c0.193-1.305,0.051-2.585-0.535-3.785c-0.823-1.685-2.302-2.352-4.385-2.003c-1.752,0.293-3.296,1.094-4.804,1.976
		c-3.707,2.17-7.319,4.483-10.697,7.149c-1.357,1.071-2.824,1.966-4.515,2.454c-3.179,0.917-5.593-1.443-6.012-3.46
		c-0.244-1.174,0.002-2.291,0.432-3.371c0.816-2.054,2.128-3.794,3.652-5.354c4.457-4.558,9.824-7.613,15.937-9.339
		C49.247,8.891,50.702,8.811,51.45,8.693z"/>
	<path fill-rule="evenodd" clip-rule="evenodd" fill="#E8242D" d="M24.929,63.315c0.123-1.775-0.78-2.779-2.473-2.811
		c-1.087-0.021-2.075,0.369-3.052,0.785c-0.261,0.111-0.521,0.227-0.823,0.359c-0.32-0.781-0.625-1.521-0.961-2.342
		c0.393-0.195,0.764-0.395,1.147-0.568c1.827-0.826,3.737-1.223,5.716-0.787c1.745,0.383,3.021,1.426,3.524,3.195
		c0.173,0.607,0.153,1.279,0.159,1.922c0.023,2.209,0.004,4.416,0.032,6.625c0.009,0.705-0.245,1.221-0.782,1.668
		c-1.667,1.385-3.595,1.961-5.735,1.951c-2.225-0.012-4.076-1.227-4.942-3.268c-1.234-2.91,0.672-6.246,3.81-6.6
		c1.066-0.121,2.149-0.096,3.225-0.129C24.147,63.306,24.521,63.315,24.929,63.315z M24.799,65.974
		c-0.888,0-1.727-0.008-2.566,0.006c-0.23,0.004-0.463,0.055-0.687,0.113c-1.18,0.313-1.795,1.26-1.585,2.426
		c0.172,0.953,0.663,1.672,1.603,1.982c1.048,0.346,2.06,0.242,2.939-0.475c0.156-0.129,0.278-0.393,0.283-0.598
		C24.813,68.304,24.799,67.179,24.799,65.974z"/>
	<path fill-rule="evenodd" clip-rule="evenodd" fill="#E8242D" d="M63.835,69.646c0.314,0.666,0.634,1.342,0.97,2.053
		c-1.189,0.768-2.444,1.318-3.805,1.471c-1.037,0.117-2.133,0.156-3.147-0.045c-2.449-0.488-3.746-2.281-4.467-4.51
		c-0.84-2.594-0.583-5.15,0.643-7.58c1.357-2.691,4.01-3.738,6.947-2.848c1.553,0.471,2.528,1.512,3.118,2.969
		c0.569,1.406,0.655,2.896,0.748,4.385c0.027,0.441-0.281,0.377-0.542,0.377c-2.371,0.002-4.742,0.002-7.113,0.002
		c-0.161,0-0.345-0.045-0.479,0.018c-0.135,0.061-0.331,0.26-0.309,0.35c0.232,0.932,0.38,1.916,0.795,2.766
		c0.677,1.387,2.092,1.938,3.715,1.547C61.88,70.364,62.815,69.983,63.835,69.646z M56.658,63.372c1.573,0,3.107,0,4.754,0
		c-0.197-0.627-0.32-1.207-0.558-1.734c-0.428-0.951-1.367-1.346-2.377-1.076C57.415,60.847,56.726,61.896,56.658,63.372z"/>
	<path fill-rule="evenodd" clip-rule="evenodd" fill="#E8242D" d="M46.203,54.366c1.093-0.17,2.187-0.338,3.365-0.52
		c0,0.619-0.003,1.172,0.001,1.723c0.005,0.664,0.033,1.33,0.019,1.994c-0.009,0.381,0.143,0.502,0.511,0.486
		c0.534-0.023,1.069-0.006,1.645-0.006c0,0.887,0,1.719,0,2.621c-0.694,0-1.388,0-2.101,0c-0.032,0.182-0.07,0.301-0.07,0.42
		c-0.004,2.641-0.018,5.283,0.002,7.924c0.01,1.322,0.377,1.691,1.71,1.875c0.192,0.027,0.381,0.07,0.583,0.109
		c0,0.746,0,1.455,0,2.211c-1.686,0.07-3.297,0.037-4.622-1.188c-0.769-0.711-1.067-1.635-1.073-2.619
		c-0.026-4.924-0.012-9.85-0.01-14.773C46.162,54.554,46.184,54.485,46.203,54.366z"/>
	<path fill-rule="evenodd" clip-rule="evenodd" fill="#E8242D" d="M72.269,73.271c-1.145,0.063-2.233,0.025-3.271-0.393
		c-1.586-0.637-2.33-1.885-2.339-3.537c-0.027-4.885-0.01-9.771-0.009-14.656c0-0.088,0.018-0.176,0.032-0.309
		c1.061-0.186,2.115-0.371,3.293-0.578c0,0.588,0,1.119,0,1.648c0,4.436,0,8.873,0,13.309c0,1.633,0.28,1.955,1.898,2.195
		c0.122,0.018,0.244,0.037,0.395,0.061C72.269,71.751,72.269,72.481,72.269,73.271z"/>
	<path fill-rule="evenodd" clip-rule="evenodd" fill="#E8242D" d="M45.08,57.978c-0.404,0.871-0.781,1.721-1.207,2.549
		c-0.064,0.123-0.358,0.189-0.542,0.182c-1.127-0.049-2.218,0.076-3.266,0.527c-0.347,0.148-0.47,0.35-0.468,0.732
		c0.015,3.467,0.009,6.934,0.009,10.4c0,0.709,0,0.695-0.688,0.676c-0.682-0.02-1.373-0.066-2.045,0.016
		c-0.58,0.072-0.647-0.145-0.644-0.635c0.019-2.947,0.01-5.893,0.008-8.84c0-0.627-0.005-1.256-0.018-1.885
		c-0.014-0.688,0.22-1.25,0.75-1.709c2.287-1.977,4.931-2.615,7.88-2.135C44.896,57.864,44.94,57.903,45.08,57.978z"/>
	<path fill-rule="evenodd" clip-rule="evenodd" fill="#E8242D" d="M30.588,73.036c0-0.215,0-0.406,0-0.6
		c0-4.396,0.006-8.795-0.009-13.191c-0.001-0.459,0.097-0.662,0.6-0.707c0.855-0.076,1.702-0.244,2.618-0.385
		c0.019,0.264,0.049,0.504,0.049,0.742c0.003,4.254,0.002,8.508,0.002,12.762c0,0.18-0.011,0.361,0.004,0.539
		c0.066,0.811,0.229,0.848-0.792,0.84C32.259,73.032,31.458,73.036,30.588,73.036z"/>
	<path fill-rule="evenodd" clip-rule="evenodd" fill="#E8242D" d="M31.983,84.269c-1.003,0.145-1.462-0.225-1.477-1.16
		c-0.012-0.754,0.008-1.51-0.009-2.264c-0.005-0.266-0.039-0.543-0.127-0.791c-0.162-0.455-0.536-0.676-1.006-0.668
		c-0.48,0.006-0.825,0.268-0.947,0.734c-0.081,0.309-0.109,0.637-0.113,0.957c-0.013,1.057-0.005,2.115-0.005,3.162
		c-0.907,0.215-1.458-0.18-1.48-1.047c-0.02-0.791-0.011-1.582-0.004-2.371c0.01-1.115,0.316-2.104,1.447-2.539
		c1.133-0.439,2.228-0.377,3.145,0.676c0.498-0.611,1.119-0.934,1.91-0.906c1.374,0.045,2.334,0.885,2.399,2.262
		c0.063,1.307,0.013,2.619,0.013,3.922c-0.966,0.262-1.483-0.115-1.499-1.068c-0.014-0.881,0.002-1.762-0.052-2.639
		c-0.046-0.746-0.483-1.158-1.103-1.148c-0.605,0.008-0.998,0.393-1.031,1.145c-0.046,1.041-0.021,2.084-0.03,3.127
		C32.012,83.86,31.993,84.069,31.983,84.269z"/>
	<path fill-rule="evenodd" clip-rule="evenodd" fill="#E8242D" d="M42.903,81.179c-0.009,2.184-1.455,3.533-3.531,3.227
		c-0.456-0.066-0.941-0.279-1.307-0.563c-1.589-1.232-1.463-4.201,0.215-5.311c0.975-0.643,2.038-0.664,3.076-0.172
		C42.338,78.823,42.908,79.933,42.903,81.179z M38.475,81.188c0.09,0.381,0.14,0.775,0.28,1.135c0.21,0.543,0.697,0.814,1.281,0.783
		c0.581-0.033,0.971-0.326,1.155-0.881c0.23-0.689,0.195-1.377-0.075-2.045c-0.181-0.447-0.53-0.703-1.02-0.766
		C39.125,79.292,38.527,79.962,38.475,81.188z"/>
	<path fill-rule="evenodd" clip-rule="evenodd" fill="#E8242D" d="M52.398,81.96c0.19,1.287,1.635,1.584,3.531,0.744
		c0.162,0.791-0.104,1.301-0.817,1.568c-1.441,0.539-3.088,0.037-3.872-1.184c-0.802-1.246-0.593-3.229,0.446-4.246
		c1.277-1.254,3.516-1.004,4.271,0.477c0.675,1.32,0.152,2.344-1.311,2.504C53.902,81.907,53.148,81.917,52.398,81.96z M52.37,80.78
		c0.607,0,1.184,0.049,1.744-0.023c0.239-0.031,0.569-0.277,0.64-0.496c0.121-0.373-0.135-0.678-0.503-0.84
		C53.283,78.995,52.329,79.659,52.37,80.78z"/>
	<path fill-rule="evenodd" clip-rule="evenodd" fill="#E8242D" d="M57.073,85.12c0.221-0.023,0.449-0.047,0.679-0.072
		c0.987-0.111,1.292-0.799,0.909-1.701c-0.643-1.514-1.183-3.072-1.76-4.613c-0.055-0.146-0.063-0.311-0.092-0.467
		c1.156-0.254,1.468-0.031,1.765,1.041c0.28,1.012,0.645,2,1.067,2.988c0.706-1.281,1.028-2.643,1.301-4.107
		c0.197,0,0.405-0.006,0.612,0c0.574,0.02,0.762,0.232,0.716,0.816c-0.009,0.107-0.025,0.215-0.055,0.316
		c-0.547,1.959-1.25,3.857-2.229,5.645c-0.379,0.689-0.856,1.291-1.742,1.363C57.461,86.392,56.975,85.915,57.073,85.12z"/>
	<path fill-rule="evenodd" clip-rule="evenodd" fill="#E8242D" d="M45.646,84.278c-1.116,0.129-1.539-0.234-1.535-1.254
		c0.004-0.916-0.043-1.838,0.061-2.742c0.166-1.449,1.199-2.24,2.747-2.227c1.414,0.012,2.459,0.842,2.567,2.238
		c0.102,1.316,0.021,2.646,0.021,3.969c-1.007,0.191-1.465-0.186-1.475-1.195c-0.009-0.824,0.009-1.652-0.048-2.475
		c-0.057-0.816-0.515-1.232-1.223-1.215c-0.669,0.018-1.102,0.51-1.112,1.328C45.635,81.888,45.646,83.071,45.646,84.278z"/>
	<path fill-rule="evenodd" clip-rule="evenodd" fill="#E8242D" d="M32.066,56.702c-1.208-0.002-2.118-0.902-2.123-2.1
		c-0.005-1.328,0.941-2.262,2.282-2.256c1.12,0.008,2.107,1.018,2.113,2.162C34.345,55.798,33.404,56.706,32.066,56.702z"/>
</g>
</svg>
