<svg viewBox="0 0 370.72 297.93" xmlns="http://www.w3.org/2000/svg"><path d="m55.77 43.38a43.39 43.39 0 1 1 43.39 43.39 43.39 43.39 0 0 1 -43.39-43.39zm98 73.63c-6-18.43-29.07-24.73-54.59-24.73-18.41 0-37.25 0-52-10.52-14.59-10.38-26.31-18.83-26.31-18.83a13.33 13.33 0 1 0 -15.09 22l61.16 47s-18.2 93.54-23 116.56c-1.07 5.14 2.78 10 8 10.71 3.27.44 7.4.91 12.39 1.33l1.24.1c.32 11.25.86 20.87 1.71 27.43a9.93 9.93 0 0 0 8.64 8.6c4.25.52 10.06 1.1 17.15 1.3a2.51 2.51 0 0 0 2.58-2.52v-33.58h3.57 3.56v33.55a2.52 2.52 0 0 0 2.59 2.52c7.08-.2 12.9-.78 17.14-1.3a10 10 0 0 0 8.65-8.6c.85-6.56 1.39-16.18 1.71-27.43l1.24-.1c5-.42 9.12-.89 12.38-1.33 5.21-.7 9.06-5.57 8-10.71-4.83-23-22.73-109.59-22.73-109.59l22.73 65.34a13.32 13.32 0 0 0 25.88-6.35s-17.56-53.18-26.62-80.86zm117.79-30.24a43.39 43.39 0 1 0 -43.38-43.39 43.39 43.39 0 0 0 43.38 43.39zm96.81-20.4a13.33 13.33 0 0 0 -18.52-3.44s-11.73 8.45-26.26 18.83c-18.87 12.75-33.63 10.52-52 10.52-25.52 0-55.3 5.91-59.94 24.73-6.67 27-21.19 80.85-21.19 80.85a13.32 13.32 0 0 0 25.88 6.35l17.39-65.34s1.54 115.3 5.92 149.16a9.94 9.94 0 0 0 8.65 8.6c4.24.52 10.06 1.1 17.14 1.3a2.52 2.52 0 0 0 2.56-2.53v-70.87a3.57 3.57 0 0 1 7.13 0v70.88a2.52 2.52 0 0 0 2.59 2.52c7.08-.2 12.9-.78 17.14-1.3a10 10 0 0 0 8.65-8.6c4.38-33.86 5.87-156.37 5.87-156.37l55.55-46.76a13.32 13.32 0 0 0 3.44-18.53z" fill="#fff"/></svg>